{"title":"April.Snow.2005.DVDRip.XviD.AC3--shinostarr","uid":7603760,"size":1468608862,"categoryP":"video","categoryS":"movies","magnet":"?xt=urn:btih:86b016c3b133648fc2beae3df745bfd8083085fc&amp;dn=April.Snow.2005.DVDRip.XviD.AC3--shinostarr&amp;tr=udp%3A%2F%2Ftracker.openbittorrent.com%3A80&amp;tr=udp%3A%2F%2Fopen.demonii.com%3A1337&amp;tr=udp%3A%2F%2Ftracker.coppersurfer.tk%3A6969&amp;tr=udp%3A%2F%2Fexodus.desync.com%3A6969","seeders":0,"leechers":0,"uploader":"Aaaameida","files":-1,"time":1346890897,"description":"Language: Korean\n\nSubtitles: English, French and Portuguese\n &lt;a href=&quot;\nhttp://www.imdb.com/title/tt0448663&quot; rel=&quot;nofollow&quot; target=&quot;_NEW&quot;&gt;\nhttp://www.imdb.com/title/tt0448663&lt;/a&gt;\n\n\nWhen a man and a woman get into a car accident, their corresponding spouses go to the hospital, but trouble brews when they figure out that the two were having an affair. While they talk (and talk) about what happened between their spouses, they TOO start getting frisky with each other, and they have an affair. But then, one of their spouses wakes up from their coma.\n\nSo what you have here is a weird hybrid of the 60's swingers movie. I really did like the premise of the movie, and the lead actors are all great.\n\n\nApril.Snow.2005.DVDRip.XviD.AC3-shinostarr.avi\n      Format : AVI\n      Format/Info : Audio Video Interleave\n      File size : 1.37 GiB\n      Duration : 1h 45mn\n      Overall bit rate : 1 855 Kbps\n      Writing application : VirtualDubMod 1.5.4.1 (build 2178/release)\n      Writing library : VirtualDubMod build 2178/release\n   Video #0\n      ID : 0\n      Format : MPEG-4 Visual\n      Format profile : AdvancedSimple@L5\n      Format settings, BVOP : Yes\n      Format settings, QPel : No\n      Format settings, GMC : No warppoints\n      Format settings, Matrix : Custom\n      Codec ID : XVID\n      Codec ID/Hint : XviD\n      Duration : 1h 45mn\n      Bit rate : 1 400 Kbps\n      Width : 720 pixels\n      Height : 400 pixels\n      Display aspect ratio : 16:9\n      Frame rate : 23.976 fps\n      Resolution : 24 bits\n      Colorimetry : 4:2:0\n      Scan type : Progressive\n      Bits/(Pixel*Frame) : 0.203\n      Stream size : 1.03 GiB (75%)\n      Writing library : XviD 64\n   Audio #1\n      ID : 1\n      Format : AC-3\n      Format/Info : Audio Coding 3\n      Codec ID : 2000\n      Duration : 1h 45mn\n      Bit rate mode : Constant\n      Bit rate : 448 Kbps\n      Channel(s) : 6 channels\n      Channel positions : Front: L C R, Surround: L R, LFE\n      Sampling rate : 48.0 KHz\n      Stream size : 338 MiB (24%)\n      Alignment : Split accross interleaves\n      Interleave, duration : 96 ms (2.30 video frames)\n      Interleave, preload duration : 96 ms\n      Language : Korean","torrent":{"xt":"urn:btih:86b016c3b133648fc2beae3df745bfd8083085fc","amp;dn":"April.Snow.2005.DVDRip.XviD.AC3--shinostarr","amp;tr":["udp%3A%2F%2Ftracker.openbittorrent.com%3A80","udp%3A%2F%2Fopen.demonii.com%3A1337","udp%3A%2F%2Ftracker.coppersurfer.tk%3A6969","udp%3A%2F%2Fexodus.desync.com%3A6969"],"infoHash":"86b016c3b133648fc2beae3df745bfd8083085fc","infoHashBuffer":{"type":"Buffer","data":[134,176,22,195,177,51,100,143,194,190,174,61,247,69,191,216,8,48,133,252]},"announce":[],"urlList":[]}}